<svg xmlns="http://www.w3.org/2000/svg" width="385" height="112"><g fill="none" fill-rule="evenodd"><g fill-rule="nonzero"><path fill="#E2D9C5" d="M40.963 11H114c-.061-5.832-4.497-10-9.963-10H31c5.466 0 9.901 4.168 9.963 10Z"/><path fill="#F2EBDA" d="M94.035 10.875C94.035 5.421 98.496 1 104 1H30.965C25.461 1 21 5.421 21 10.875V92h63.07c5.504 0 9.965-4.421 9.965-9.875v-71.25Z"/><g fill="#E2D9C5"><path d="M92.427 1.004c-5.519 0-9.993 4.451-9.993 9.943v71.737c0 5.492-4.474 9.943-9.993 9.943h12.134c5.52 0 9.993-4.451 9.993-9.943V10.947c0-5.492 4.474-9.943 9.993-9.943H92.427Z"/><path d="M74.361 82.092H1.12c.062 6.144 4.51 10.535 9.99 10.535h73.243c-5.481 0-9.93-4.39-9.99-10.535Z"/></g><path fill="#DDA064" d="M69 64c2.023-6.257 3.842-12.648 8.14-17.53C86.53 35.81 105.35 32.677 119 33.027c-4.271 3.508-7.995 7.057-12.31 11.702-4.837 5.208-15.392 12.139-20.472 13.693C78.308 60.84 74.647 61.246 69 64Z"/><path fill="#B57947" d="M69 64c2.023-6.262 36.35-31.346 50-30.996-4.271 3.51-7.995 7.062-12.31 11.71-4.837 5.212-15.392 12.148-20.472 13.703C78.308 60.839 74.647 61.244 69 64Z"/></g><path fill="#1F2D3D" d="M146.8 111.2c-17.4 0-30.45-13.95-30.45-33.75 0-19.05 13.8-34.35 31.5-34.35 8.4 0 14.55 3.15 18.3 6.3V14h-9.9V.2h26.25v96.3h9.75V110h-26.1v-7.2c-4.8 4.65-10.95 8.4-19.35 8.4Zm3.75-14.1c6.15 0 11.1-2.7 15.6-6.6V62.3c-4.35-3-9.45-5.1-15.6-5.1-9.15 0-17.4 7.05-17.4 20.1 0 12.6 7.8 19.8 17.4 19.8Zm74.9 14.1c-21.75 0-34.95-15.75-34.95-34.05 0-18 13.5-34.05 34.95-34.05 21.75 0 34.95 15.75 34.95 34.05 0 18-13.5 34.05-34.95 34.05Zm0-13.65c10.65 0 18.15-8.4 18.15-20.4 0-12-7.5-20.4-18.15-20.4-10.65 0-18.15 8.4-18.15 20.4 0 12 7.5 20.4 18.15 20.4Zm71.45 13.65c-20.7 0-36.3-13.5-36.3-34.65 0-17.1 13.8-33.45 33.3-33.45 18 0 29.85 11.7 29.85 22.05 0 6.9-4.65 11.1-10.5 11.1-5.4 0-9.9-4.5-9.9-9.9 0-1.95.9-4.2 2.1-5.55-1.2-1.65-5.25-4.5-11.7-4.5-7.5 0-16.8 6.15-16.8 20.55 0 12.6 9.6 20.55 21.3 20.55 7.95 0 14.85-2.25 23.4-6.9l-1.35 14.7c-7.05 4.05-13.8 6-23.4 6Zm26.75-1.2v-9.6l39.6-43.2H340v12.15h-13.95V44.3h57.6v9.45l-39.6 43.2h26.55V84.8h13.8V110h-60.75Z"/><path fill="#1F2D3D" fill-rule="nonzero" d="M87 18.5c0-.829-.788-1.5-1.76-1.5H47.76c-.972 0-1.76.672-1.76 1.5s.788 1.5 1.76 1.5h37.48c.972 0 1.76-.672 1.76-1.5ZM31.862 20h6.276C39.167 20 40 19.328 40 18.5s-.833-1.5-1.862-1.5h-6.276C30.833 17 30 17.672 30 18.5s.833 1.5 1.862 1.5ZM31.766 71C30.79 71 30 71.672 30 72.5c0 .829.79 1.5 1.766 1.5h18.468C51.21 74 52 73.328 52 72.5c0-.829-.79-1.5-1.766-1.5H31.766ZM60 56.5c0-.829-.806-1.5-1.801-1.5H31.8c-.995 0-1.801.672-1.801 1.5 0 .829.806 1.5 1.801 1.5H58.2c.994 0 1.801-.672 1.801-1.5ZM73 38.5c0-.829-.81-1.5-1.807-1.5H31.807C30.81 37 30 37.672 30 38.5s.81 1.5 1.807 1.5h39.386C72.19 40 73 39.329 73 38.5Z"/><path fill="#1F2D3D" fill-rule="nonzero" d="M94.411 60.852c-.97 0-1.757.797-1.757 1.78v21.557c0 4.55-3.657 8.253-8.151 8.253h-.221c-4.596 0-8.099-3.813-8.149-8.868a1.768 1.768 0 0 0-1.757-1.761H23.55V11.81c0-4.55 3.657-8.253 8.151-8.253h64.282c-.052.053-.1.11-.151.164-.062.066-.124.131-.184.199-.063.071-.124.144-.186.217-.059.07-.119.14-.176.21-.06.075-.117.15-.175.226-.056.073-.113.145-.167.22-.056.076-.11.154-.164.232-.053.076-.107.152-.158.23-.052.078-.101.158-.151.238-.05.08-.1.158-.149.239-.048.08-.093.164-.14.246-.046.082-.093.163-.137.246-.045.083-.086.168-.128.253-.042.084-.086.168-.126.253-.04.086-.078.174-.117.26-.038.087-.078.173-.114.26-.037.089-.07.179-.105.268-.034.088-.07.176-.101.265-.033.091-.062.185-.093.277-.03.09-.06.178-.088.268-.03.095-.054.191-.081.287-.025.09-.052.179-.075.27-.025.099-.046.2-.068.3-.02.089-.042.176-.06.266-.021.104-.038.21-.056.315-.015.088-.032.174-.046.262-.016.112-.029.226-.042.34-.01.082-.023.163-.03.245-.013.127-.021.256-.03.384-.005.07-.012.14-.016.211-.01.2-.015.4-.015.602v15.79c0 .983.787 1.78 1.758 1.78.97 0 1.757-.797 1.757-1.78V14.187h18.075c.469 0 .919-.19 1.249-.527a1.79 1.79 0 0 0 .508-1.27C115.93 5.328 110.917 0 104.319 0h-72.62c-6.432 0-11.665 5.299-11.665 11.811v70.002H1.757c-.469 0-.919.19-1.249.527A1.79 1.79 0 0 0 0 83.61C.07 90.672 5.083 96 11.663 96h72.84c6.432 0 11.665-5.299 11.665-11.811V62.63c0-.983-.786-1.779-1.757-1.779Zm1.847-50.26.027-.162c.012-.076.025-.152.04-.227.011-.058.024-.114.036-.171a8.89 8.89 0 0 1 .15-.586 7.456 7.456 0 0 1 .183-.547 8.022 8.022 0 0 1 .144-.36c.023-.054.048-.108.072-.161.029-.064.057-.127.088-.19.022-.046.046-.092.07-.138.034-.068.069-.136.105-.203l.044-.077c.162-.291.34-.572.535-.84l.005-.007c.063-.086.128-.17.194-.253l.031-.04c.064-.081.13-.16.198-.238l.037-.044a8.08 8.08 0 0 1 .21-.23l.035-.037a8.592 8.592 0 0 1 .5-.482l.009-.007a8.108 8.108 0 0 1 3.862-1.894h.002c.12-.023.24-.043.362-.06l.022-.003c.116-.016.232-.03.35-.04l.053-.005c.108-.01.215-.017.324-.022.063-.003.126-.004.19-.005.067-.002.135-.005.203-.005 4.033 0 7.224 2.936 7.98 7.07H96.253l.004-.036Zm-84.596 81.85c-4.032 0-7.224-2.936-7.979-7.071h69.059c.024.184.052.366.083.548.01.06.023.12.034.18.022.12.045.24.07.358l.048.21c.024.107.049.213.076.318l.059.22a13.667 13.667 0 0 0 .248.807 11.489 11.489 0 0 0 .182.5l.084.21c.039.095.079.188.12.28.028.067.057.134.087.2.045.097.092.193.138.289.03.059.057.119.087.177.057.113.117.223.177.333l.065.12c.084.15.17.296.26.44l.063.099c.07.11.14.22.213.327l.103.147c.063.09.126.179.19.266l.12.156a11.39 11.39 0 0 0 .652.778c.033.036.064.073.097.108H11.662Z"/><path fill="#1F2D3D" fill-rule="nonzero" d="m120.998 32.79-.001-.062a1.754 1.754 0 0 0-.088-.48l-.006-.024c-.002-.006-.006-.011-.008-.018a1.788 1.788 0 0 0-.099-.226l-.015-.026a1.785 1.785 0 0 0-.117-.184l-.027-.038a1.778 1.778 0 0 0-.153-.175l-.037-.035a1.78 1.78 0 0 0-.163-.138l-.023-.018a1.833 1.833 0 0 0-.203-.125c-.013-.008-.027-.014-.04-.021a1.778 1.778 0 0 0-.225-.096 1.83 1.83 0 0 0-.29-.071 1.807 1.807 0 0 0-.248-.025c-14.99-.385-34.535 3.195-44.416 14.386-4.325 4.898-6.32 11.112-8.25 17.121l-.475 1.475a1.73 1.73 0 0 0-.019.062l-3.028 10.669a1.776 1.776 0 0 0 1.24 2.192 1.79 1.79 0 0 0 2.21-1.23l2.807-9.894c3.433-1.596 6.197-2.342 9.93-3.35 1.937-.522 4.132-1.114 6.789-1.925 5.743-1.752 16.76-9.084 21.83-14.528 4.434-4.761 8.166-8.3 12.477-11.831.005-.004.008-.01.013-.013.063-.053.123-.11.178-.17l.01-.01a1.774 1.774 0 0 0 .374-.674l.013-.044c.02-.078.038-.156.048-.237l.001-.01a1.75 1.75 0 0 0 .013-.167l-.002-.06ZM77.534 47.757c4.17-4.723 10.56-8.283 18.996-10.581a70.735 70.735 0 0 1 7.13-1.535c-6.272 3.018-12.27 6.799-15.622 9.02-5.41 3.585-11.25 7.935-15.561 11.803 1.276-3.207 2.818-6.172 5.057-8.707Zm27.708-4.163c-4.935 5.298-15.593 12.12-20.252 13.542-2.6.793-4.765 1.378-6.676 1.893-1.728.466-3.3.891-4.855 1.38.695-.66 1.51-1.401 2.472-2.233 3.868-3.348 8.875-7.097 14.097-10.559 9.042-5.993 17.225-10.2 23.228-12.023-2.607 2.382-5.172 4.947-8.014 8Z"/></g></svg>
