<?xml version="1.0" encoding="UTF-8"?>
<svg width="385px" height="112px" viewBox="0 0 385 112" version="1.1" xmlns="http://www.w3.org/2000/svg" xmlns:xlink="http://www.w3.org/1999/xlink">
    <!-- Generator: Sketch 50.2 (55047) - http://www.bohemiancoding.com/sketch -->
    <title>logo</title>
    <desc>Created with Sketch.</desc>
    <defs></defs>
    <g id="Page-1" stroke="none" stroke-width="1" fill="none" fill-rule="evenodd">
        <g id="logo" transform="translate(-232.000000, -233.000000)">
            <g id="Group-2" transform="translate(232.000000, 223.000000)">
                <g id="script" transform="translate(1.000000, 11.000000)" fill-rule="nonzero">
                    <path d="M39.9625055,10 L113,10 C112.938776,4.16780035 108.503121,0 103.037495,0 L30,0 C35.4656262,0 39.9012818,4.16780035 39.9625055,10 Z" id="Shape" fill="#E2D9C5"></path>
                    <path d="M93.0350081,9.87542631 C93.0350081,4.42130677 97.4964141,0 103,0 L29.9649919,0 C24.461406,0 20,4.42130677 20,9.87542631 L20,91 L83.0700162,91 C88.5736021,91 93.0350081,86.5786932 93.0350081,81.1245737 L93.0350081,9.87542631 Z" id="Shape" fill="#F2EBDA"></path>
                    <g id="Group" fill="#E2D9C5">
                        <path d="M91.4273675,0.00352424677 C85.9081753,0.00352424677 81.4341183,4.45511782 81.4341183,9.94659914 L81.4341183,81.6840519 C81.4341183,87.1755332 76.9600613,91.6271268 71.4408692,91.6271268 L83.5749216,91.6271268 C89.0941138,91.6271268 93.5681708,87.1755332 93.5681708,81.6840519 L93.5681708,9.94659914 C93.5681708,4.45511782 98.0422278,0.00352424677 103.56142,0.00352424677 L91.4273675,0.00352424677 Z" id="Shape"></path>
                        <path d="M73.3613582,81.0919784 L0.119248365,81.0919784 C0.180643563,87.2361502 4.62872566,91.6268918 10.1096639,91.6268918 L83.3517737,91.6268918 C77.8705993,91.6266569 73.4227534,87.2361502 73.3613582,81.0919784 Z" id="Shape"></path>
                    </g>
                    <path d="M68,63 C70.0230194,56.7426093 71.8423666,50.3519155 76.1406151,45.470527 C85.5290413,34.8085894 104.34909,31.6760821 118,32.0258584 C113.728691,35.5344791 110.005462,39.0830676 105.690493,43.7283456 C100.852989,48.9364076 90.2978026,55.8665515 85.2183077,57.4206762 C77.3071432,59.8413865 73.6468506,60.2459164 68,63 Z" id="Shape" fill="#DDA064"></path>
                    <path d="M68,63 C70.0230194,56.7380715 104.34909,31.6535975 118,32.0036274 C113.728691,35.5147925 110.005462,39.0659545 105.690493,43.7146012 C100.852989,48.92644 90.2978026,55.8616096 85.2183077,57.4168613 C77.3071432,59.8390959 73.6468506,60.2439192 68,63 Z" id="Shape" fill="#B57947"></path>
                </g>
                <path d="M146.8,121.2 C129.4,121.2 116.35,107.25 116.35,87.45 C116.35,68.4 130.15,53.1 147.85,53.1 C156.25,53.1 162.4,56.25 166.15,59.4 L166.15,24 L156.25,24 L156.25,10.2 L182.5,10.2 L182.5,106.5 L192.25,106.5 L192.25,120 L166.15,120 L166.15,112.8 C161.35,117.45 155.2,121.2 146.8,121.2 Z M150.55,107.1 C156.7,107.1 161.65,104.4 166.15,100.5 L166.15,72.3 C161.8,69.3 156.7,67.2 150.55,67.2 C141.4,67.2 133.15,74.25 133.15,87.3 C133.15,99.9 140.95,107.1 150.55,107.1 Z M225.45,121.2 C203.7,121.2 190.5,105.45 190.5,87.15 C190.5,69.15 204,53.1 225.45,53.1 C247.2,53.1 260.4,68.85 260.4,87.15 C260.4,105.15 246.9,121.2 225.45,121.2 Z M225.45,107.55 C236.1,107.55 243.6,99.15 243.6,87.15 C243.6,75.15 236.1,66.75 225.45,66.75 C214.8,66.75 207.3,75.15 207.3,87.15 C207.3,99.15 214.8,107.55 225.45,107.55 Z M296.9,121.2 C276.2,121.2 260.6,107.7 260.6,86.55 C260.6,69.45 274.4,53.1 293.9,53.1 C311.9,53.1 323.75,64.8 323.75,75.15 C323.75,82.05 319.1,86.25 313.25,86.25 C307.85,86.25 303.35,81.75 303.35,76.35 C303.35,74.4 304.25,72.15 305.45,70.8 C304.25,69.15 300.2,66.3 293.75,66.3 C286.25,66.3 276.95,72.45 276.95,86.85 C276.95,99.45 286.55,107.4 298.25,107.4 C306.2,107.4 313.1,105.15 321.65,100.5 L320.3,115.2 C313.25,119.25 306.5,121.2 296.9,121.2 Z M323.65,120 L323.65,110.4 L363.25,67.2 L340,67.2 L340,79.35 L326.05,79.35 L326.05,54.3 L383.65,54.3 L383.65,63.75 L344.05,106.95 L370.6,106.95 L370.6,94.8 L384.4,94.8 L384.4,120 L323.65,120 Z" id="docz" fill="#1F2D3D"></path>
                <path d="M87,28.5 C87,27.6713524 86.2117821,27 85.239412,27 L47.760588,27 C46.7882179,27 46,27.6715523 46,28.5 C46,29.3284477 46.7882179,30 47.760588,30 L85.2391775,30 C86.2115475,30 87,29.3284477 87,28.5 Z" id="Shape" fill="#1F2D3D" fill-rule="nonzero"></path>
                <path d="M31.8615438,30 L38.1384562,30 C39.166584,30 40,29.3284477 40,28.5 C40,27.6715523 39.166584,27 38.1384562,27 L31.8615438,27 C30.833416,27 30,27.6715523 30,28.5 C30,29.3284477 30.833168,30 31.8615438,30 Z" id="Shape" fill="#1F2D3D" fill-rule="nonzero"></path>
                <path d="M31.7657124,81 C30.7905121,81 30,81.6715523 30,82.5 C30,83.3286476 30.7905121,84 31.7657124,84 L50.2342876,84 C51.2094879,84 52,83.3284477 52,82.5 C52,81.6713524 51.2094879,81 50.2342876,81 L31.7657124,81 Z" id="Shape" fill="#1F2D3D" fill-rule="nonzero"></path>
                <path d="M60,66.5 C60,65.6713524 59.1936387,65 58.1988865,65 L31.8011135,65 C30.8063613,65 30,65.6715523 30,66.5 C30,67.3286476 30.8063613,68 31.8011135,68 L58.1988865,68 C59.1933987,68 60,67.3284477 60,66.5 Z" id="Shape" fill="#1F2D3D" fill-rule="nonzero"></path>
                <path d="M73,48.5 C73,47.6713524 72.1908104,47 71.192569,47 L31.807431,47 C30.8091896,47 30,47.6715523 30,48.5 C30,49.3284477 30.8091896,50 31.807431,50 L71.192569,50 C72.1908104,50.0001998 73,49.3286475 73,48.5 Z" id="Shape" fill="#1F2D3D" fill-rule="nonzero"></path>
                <path d="M94.4110629,70.8520717 C93.4406069,70.8520717 92.6539406,71.6485555 92.6539406,72.6311225 L92.6539406,94.1890464 C92.6539406,98.7399081 88.9973468,102.441898 84.503047,102.441898 L84.2817971,102.441898 C79.6861203,102.441898 76.1831138,98.6294434 76.1334789,93.5741419 C76.1238797,92.5984493 75.3400229,91.8126327 74.3763566,91.8126327 L23.5492816,91.8126327 L23.5492816,21.8109536 C23.5492816,17.2600919 27.2058754,13.5581016 31.7001752,13.5581016 L95.9815861,13.5581016 C95.9300781,13.6114376 95.8813797,13.6673811 95.8308083,13.7219023 C95.7694671,13.7880389 95.7074235,13.8534644 95.647487,13.9207862 C95.5840386,13.9921379 95.5229315,14.0653859 95.4613561,14.138397 C95.402122,14.2083263 95.3424196,14.2775446 95.2848244,14.3488962 C95.2251221,14.4228554 95.1679951,14.498711 95.1099316,14.5740925 C95.0537412,14.6471036 94.9970825,14.7194034 94.9425309,14.7938367 C94.8868087,14.8701664 94.8334278,14.9481555 94.7793445,15.0259075 C94.7261977,15.1022371 94.6723485,15.1780927 94.6208406,15.2556077 C94.5690985,15.3340708 94.5196977,15.4141933 94.4698287,15.4940787 C94.4199597,15.57349 94.3693883,15.6521902 94.3213923,15.7327868 C94.2731621,15.8138575 94.2277415,15.8965875 94.1816185,15.9788434 C94.1354955,16.0606252 94.0882019,16.1419329 94.0439519,16.225137 C93.9994678,16.3083412 93.9582615,16.3934417 93.9158845,16.4780681 C93.8735075,16.5624574 93.8299599,16.6461356 93.7896901,16.7314732 C93.7491861,16.8172848 93.71196,16.9047558 93.673329,16.9915156 C93.6349322,17.0780384 93.5953648,17.1638501 93.5590751,17.2513211 C93.5223172,17.3397402 93.4890712,17.4298188 93.4544204,17.5191861 C93.4202379,17.6073683 93.3848847,17.6948393 93.3528093,17.7839696 C93.3197974,17.8754704 93.2905316,17.9686305 93.2598609,18.0613166 C93.230361,18.1504469 93.1992221,18.2386291 93.1715951,18.3287076 C93.1425634,18.4235271 93.1175118,18.5200059 93.0908213,18.6160107 C93.0660039,18.7056151 93.0393134,18.7945084 93.016369,18.885061 C92.9913174,18.9846215 92.970246,19.0856042 92.9475357,19.1861129 C92.9276349,19.2745321 92.905627,19.3624772 92.8878333,19.4516075 C92.8667619,19.556146 92.8501389,19.6618697 92.831877,19.7673564 C92.8168929,19.8545904 92.7995675,19.9408761 92.7864564,20.0285841 C92.7695992,20.1411823 92.7574246,20.2552027 92.7436112,20.3687491 C92.7337778,20.4507679 92.7213691,20.5318386 92.7131747,20.6143316 C92.7005318,20.7413897 92.6928056,20.8698701 92.6841429,20.9981135 C92.6794604,21.068517 92.6719683,21.1384463 92.6684564,21.2090869 C92.6586231,21.4084449 92.6534723,21.6092251 92.6534723,21.8111907 L92.6534723,22.4083165 L92.6534723,37.6014816 C92.6534723,38.5842856 93.4401387,39.3805324 94.4105946,39.3805324 C95.3810506,39.3805324 96.1677169,38.5840486 96.1677169,37.6014816 L96.1677169,24.1873673 L114.243015,24.1873673 C114.711971,24.1873673 115.161729,23.9974912 115.491614,23.6601709 C115.821733,23.3226135 116.00482,22.8655835 115.999903,22.3907749 C115.930602,15.3267223 110.916775,10 104.318611,10 L31.6994728,10 C25.2670706,10 20.0341004,15.2985135 20.0341004,21.8111907 L20.0341004,91.8126327 L1.75698472,91.8126327 C1.28802855,91.8126327 0.838270796,92.0025088 0.508386007,92.3398291 C0.178267091,92.6773865 -0.0048201377,93.1344165 9.65270039e-05,93.6092251 C0.0693980867,100.673278 5.08322545,106 11.6626593,106 L84.2817971,106 L84.503047,106 C90.9354492,106 96.1684193,100.701486 96.1684193,94.1888093 L96.1684193,72.6308855 C96.1684193,71.6483184 95.3815188,70.8520717 94.4110629,70.8520717 Z M96.2578558,20.5918119 C96.2658161,20.5375278 96.2756494,20.4837177 96.2847804,20.4299076 C96.2974232,20.3540521 96.3103002,20.2781965 96.3250502,20.202815 C96.3362883,20.1454492 96.3489311,20.0885575 96.3613399,20.0316658 C96.3767922,19.9610252 96.3924787,19.8906218 96.40957,19.8206924 C96.4240859,19.7619043 96.4395383,19.7033533 96.4552248,19.6450393 C96.4732525,19.5784286 96.4917485,19.5118179 96.5111811,19.4459183 C96.5287406,19.386182 96.5472366,19.3269198 96.5662009,19.2678947 C96.5863358,19.2048397 96.6074072,19.1422589 96.629181,19.079678 C96.6502525,19.0192306 96.671558,18.9587831 96.6940342,18.8990469 C96.7160421,18.8400217 96.7392207,18.7817077 96.7626334,18.7231567 C96.7872167,18.661524 96.8118,18.6001284 96.8380222,18.5392069 C96.8612008,18.4849227 96.8857841,18.4313497 96.9101333,18.3777767 C96.9389309,18.3144847 96.9674944,18.2507186 96.9976968,18.1883747 C97.0201729,18.1419132 97.044288,18.0963998 97.0677007,18.0504124 C97.1023515,17.9821423 97.136534,17.9138723 97.1730578,17.8467875 C97.1871054,17.8207121 97.2025578,17.795585 97.2168395,17.7697467 C97.3790895,17.4788878 97.55726,17.1982221 97.7520536,16.9305941 C97.7539266,16.9279866 97.7555655,16.9256161 97.7574385,16.9230085 C97.8201845,16.8371969 97.8850377,16.7530446 97.9508273,16.6696034 C97.961363,16.6563287 97.9714305,16.6428169 97.9819662,16.6295422 C98.0463511,16.5489456 98.1128431,16.4700084 98.1800376,16.3920194 C98.1924463,16.3775594 98.204855,16.3628624 98.2174979,16.3484024 C98.2858629,16.2701763 98.3558669,16.1936096 98.4272756,16.117991 C98.4389819,16.1056645 98.4504541,16.0931009 98.4623946,16.0807744 C98.5363787,16.0034965 98.6117675,15.9274038 98.6885612,15.8529705 C98.6972239,15.8446738 98.7058866,15.8363771 98.7145493,15.8278434 C98.7955572,15.7500914 98.8779698,15.6737617 98.9622555,15.5993284 C98.965065,15.5967208 98.9681087,15.5943503 98.9709182,15.5917428 C100.046965,14.6428367 101.371187,13.9736481 102.832607,13.6981974 C102.83331,13.6979604 102.834246,13.6979604 102.834948,13.6977233 C102.954587,13.6752037 103.075397,13.6552916 103.196909,13.6382241 C103.204167,13.6372759 103.211424,13.6363277 103.218682,13.6353795 C103.334575,13.6192602 103.45117,13.6055114 103.568468,13.5943701 C103.586262,13.5927108 103.604289,13.5917626 103.622317,13.5903403 C103.729781,13.5808583 103.83748,13.5727987 103.946115,13.5675836 C104.008861,13.564739 104.072075,13.5642649 104.135289,13.5626056 C104.203186,13.5609462 104.270849,13.5578646 104.339214,13.5578646 C108.371815,13.5578646 111.563199,16.4937133 112.318258,20.6287915 L96.2543439,20.6287915 C96.2550463,20.6167021 96.2562169,20.6041385 96.2578558,20.5918119 Z M11.6624252,102.441898 C7.62982365,102.441898 4.43844,99.5060497 3.68338077,95.3709714 L21.7919251,95.3709714 L72.7416826,95.3709714 C72.7657977,95.5551583 72.7938929,95.7374488 72.8250318,95.918554 C72.8353334,95.9792385 72.8479762,96.0387377 72.8592143,96.0991851 C72.8814564,96.2188948 72.9036984,96.3386044 72.9289841,96.4566546 C72.9439683,96.5275322 72.9610595,96.5972246 72.9769801,96.667391 C73.0013293,96.7738259 73.0259127,96.8802608 73.0528373,96.9852733 C73.0715674,97.0589955 73.0919364,97.1320065 73.1118372,97.2050175 C73.1392301,97.3050521 73.1668571,97.4048496 73.196357,97.5036989 C73.218365,97.5778952 73.2415435,97.6516174 73.2649562,97.7251025 C73.2953927,97.8213443 73.3269998,97.917112 73.3595435,98.0121685 C73.3845951,98.0854166 73.4101149,98.1584276 73.4365712,98.2309645 C73.4707538,98.3253099 73.5061069,98.4187071 73.5423966,98.5116302 C73.5700236,98.5822707 73.5974164,98.6529113 73.6259799,98.7228406 C73.6646108,98.816949 73.7048806,98.9098721 73.7453846,99.0027952 C73.7744163,99.0694059 73.8032139,99.1362536 73.8334163,99.2021532 C73.8779004,99.2993432 73.9247258,99.3951109 73.971317,99.4906415 C74.0003488,99.5499037 74.0282099,99.60964 74.0581781,99.6684281 C74.1153051,99.7805521 74.1750074,99.8907798 74.2351781,100.00077 C74.2569519,100.040832 74.2777891,100.081604 74.3000312,100.121191 C74.3836145,100.270058 74.4700073,100.416554 74.5592097,100.56068 C74.580047,100.59434 74.602289,100.626579 74.6233604,100.660003 C74.6928961,100.770231 74.7633683,100.879747 74.8361818,100.98713 C74.8698961,101.036673 74.9050151,101.084794 74.9391976,101.133863 C75.0019436,101.223468 75.0646896,101.312835 75.1297769,101.400306 C75.1688761,101.452931 75.2089118,101.504134 75.2487134,101.556047 C75.3114594,101.637829 75.3746736,101.719374 75.4392927,101.799022 C75.4819037,101.85141 75.5252172,101.903087 75.5685307,101.954763 C75.6331497,102.032041 75.6987052,102.108371 75.7651973,102.183752 C75.8099155,102.234481 75.8553361,102.284498 75.9009909,102.334278 C75.9335345,102.369836 75.9649075,102.406815 75.9979194,102.441898 L11.6624252,102.441898 Z" id="Shape" fill="#1F2D3D" fill-rule="nonzero"></path>
                <path d="M120.998408,42.7899677 C120.998169,42.769365 120.997692,42.7487623 120.996976,42.7279228 C120.989815,42.5607333 120.959502,42.3997009 120.90866,42.2471937 C120.906274,42.2396157 120.905319,42.2318009 120.902693,42.2244597 C120.900545,42.2183026 120.896965,42.2126191 120.894816,42.2064619 C120.866651,42.1285507 120.834189,42.0527707 120.795998,41.9803061 C120.791225,41.9713072 120.785735,41.9630188 120.780961,41.9540199 C120.745635,41.8900806 120.706489,41.8287462 120.663764,41.7697799 C120.654694,41.7572288 120.646101,41.7442042 120.636792,41.7318899 C120.58977,41.6703187 120.53869,41.6120628 120.48403,41.5571224 C120.472095,41.5450449 120.459445,41.5339147 120.447271,41.5223109 C120.395714,41.473054 120.341293,41.4268755 120.284007,41.3840125 C120.276369,41.378329 120.269208,41.3719351 120.261331,41.3662516 C120.196885,41.3198363 120.128619,41.2783942 120.058205,41.2405042 C120.0446,41.233163 120.030995,41.2265323 120.017151,41.2196647 C119.945305,41.1836692 119.871788,41.1507523 119.794691,41.1244661 C119.794214,41.1242293 119.793736,41.1239925 119.793259,41.1239925 C119.716639,41.0979431 119.637155,41.0782877 119.556239,41.0624213 C119.538337,41.0588691 119.520435,41.0557905 119.502295,41.0529488 C119.421379,41.0396873 119.339269,41.0297412 119.255011,41.0276098 C104.265713,40.6427897 84.7202875,44.2226827 74.8387316,55.4144364 C70.5141337,60.3124272 68.5186795,66.5263844 66.589104,72.5354989 C66.4310907,73.0273583 66.2733162,73.5189808 66.1141095,74.0098929 C66.1074262,74.0304956 66.1009815,74.0513351 66.0950142,74.0724114 L63.0674615,84.7405729 C62.7994119,85.6852176 63.354129,86.6670418 64.3062662,86.9332189 C64.4685759,86.9786869 64.632079,87 64.7927178,87 C65.5749072,87 66.2938436,86.487538 66.5163033,85.703689 L69.3242606,75.8091935 C72.7568714,74.2130779 75.5209096,73.4666453 79.2545094,72.4594822 C81.1912456,71.9366004 83.3864839,71.3445694 86.0428726,70.5339606 C91.7857706,68.7815489 102.802778,61.4498371 107.873046,56.0062306 C112.307441,51.2448806 116.038893,47.7064298 120.349647,44.1748466 C120.354659,44.1708208 120.358478,44.1658477 120.363491,44.1615851 C120.426267,44.1087759 120.485939,44.0526514 120.540838,43.9917906 C120.54418,43.9880016 120.54776,43.9846862 120.551102,43.981134 C120.605285,43.9202732 120.654455,43.854913 120.700045,43.7867111 C120.708399,43.77416 120.716514,43.7616089 120.72463,43.7488211 C120.810559,43.6131276 120.878347,43.4655934 120.92513,43.30835 C120.929665,43.2934308 120.933962,43.2787485 120.938019,43.2635925 C120.958785,43.1863916 120.975971,43.1077699 120.986235,43.0267801 C120.986712,43.0234647 120.986712,43.0203861 120.986951,43.0170708 C120.993634,42.9621303 120.998408,42.9064794 120.99984,42.850118 C121.000556,42.8297522 120.998647,42.8098599 120.998408,42.7899677 Z M77.5340269,57.756511 C81.7037145,53.0337614 88.0946578,49.4737607 96.5295094,47.1757332 C98.7963549,46.5581265 101.191855,46.0456645 103.660632,45.6411889 C97.3876024,48.6593629 91.3895441,52.4395991 88.0376107,54.6611362 C82.6281636,58.2464759 76.7888345,62.5955355 72.4766485,66.4636291 C73.752689,63.2567157 75.2953469,60.2920613 77.5340269,57.756511 Z M105.24172,53.5935859 C100.307028,58.8917896 89.6492502,65.7143547 84.9897693,67.1359395 C82.3894729,67.9292611 80.2245483,68.513714 78.3143067,69.0290178 C76.5859475,69.4953014 75.0136919,69.9201429 73.4588607,70.4098709 C74.1544054,69.7489275 74.9697728,69.0079415 75.9309802,68.1760196 C79.7992015,64.8284396 84.8055001,61.0785153 90.0278137,57.6172653 C99.0698944,51.6242541 107.252689,47.4175187 113.255998,45.5938264 C110.64878,47.9761591 108.084287,50.541311 105.24172,53.5935859 Z" id="Shape" fill="#1F2D3D" fill-rule="nonzero"></path>
            </g>
        </g>
    </g>
</svg>