<svg width="500" height="200" viewBox="0 0 124 17" preserveAspectRatio="true" xmlns="http://www.w3.org/2000/svg"><path d="M34.603 8.89c.227-1.278 1.018-2.647 2.61-2.647 1.39 0 2.02 1.25 2.02 2.41 0 .186-.03.237-.246.237h-4.384zM37.3 4.768c-2.915 0-5.03 2.565-5.03 6.1 0 3.598 1.92 5.747 5.137 5.747 1.722 0 3.112-.77 3.546-1.496l.043-.08-.117-1-.32.16c-.77.39-1.7.59-2.75.59-2.46 0-3.34-2.14-3.34-4.14v-.4h6.97l.03-.22c.04-.31.04-.54.04-.84-.01-2.15-1.33-4.46-4.23-4.46zm73.136-2.328h-1.134l-.05.186c-.332 1.225-.766 2.03-2.106 2.77l-.13.072v1.107h1.32v7.174c0 2 .78 2.86 2.608 2.86 1.09 0 2.22-.47 2.572-1.05l.048-.08-.16-.83-.275.1a5.03 5.03 0 0 1-1.5.25c-.78 0-1.2-.26-1.2-1.64V6.57h3.14V5.03h-3.14V2.44zm-62.41 8.974c-.02.612-.052 1.868-.055 2.595-.38.4-1.07.82-1.97.82-.94 0-1.52-.58-1.52-1.5 0-1.28 1-1.93 2.98-1.93h.58m2.07 2.53c0-1.03.03-1.98.05-2.89.02-.86.04-1.68.04-2.52 0-2.4-1.42-3.78-3.9-3.78-1.26 0-2.6.68-3.15 1.35l-.07.08.19 1.1.31-.18c.68-.38 1.45-.57 2.35-.57 1.503 0 2.173.73 2.173 2.364v1.03c-.31-.01-.68-.01-.915-.01-2.925 0-4.814 1.437-4.814 3.66 0 1.77 1.27 3 3.08 3 1.17 0 2.18-.6 2.744-1.183.212.74.853 1.19 1.75 1.19.68 0 1.38-.17 1.783-.44l.11-.074v-1h-.25c-1.252 0-1.46-.276-1.46-1.15m8.95-9.18c-.74 0-1.78.503-2.475 1.147V4.52l-.35.16c-1.054.476-1.82.71-2.97 1.05l-.18.055v.922l.2.04c1.2.248 1.2.338 1.2 1.44v5.407c0 1.437-.17 1.467-.5 1.526l-.925.144v1.094l.26-.01c.163-.007.353-.017.56-.03a28.62 28.62 0 0 1 1.635-.058c.62 0 1.44.038 2.04.067l.74.03v-1.103l-1.21-.135c-.3-.05-.5-.07-.5-1.53V7.44c.58-.447 1.34-.712 2.04-.712.42 0 .89.075 1.08.172l.32.164.24-2.105-.21-.06a3.677 3.677 0 0 0-.99-.15m9.764 9.39c-.606.41-1.447.64-2.367.64-2.21 0-3.58-1.6-3.58-4.16 0-2.6 1.28-4.42 3.12-4.42 1.225 0 1.78.55 1.844 1.86l.01.23h1.31v-.25c0-.746.02-1.795.085-2.506l.015-.19-.18-.066a8.613 8.613 0 0 0-2.96-.548c-3 0-5.44 2.74-5.44 6.1 0 3.546 1.98 5.75 5.18 5.75 1.65 0 2.97-.777 3.42-1.544l.04-.08-.195-1.046-.318.214zm33.686-2.75c-.02.61-.05 1.87-.05 2.59-.38.4-1.073.82-1.97.82-.94 0-1.52-.58-1.52-1.5 0-1.28 1-1.93 2.972-1.93h.03c.16 0 .37 0 .55.01m2.07 2.53c0-1.03.027-1.98.05-2.89.02-.86.04-1.68.04-2.52 0-2.4-1.425-3.775-3.906-3.775-1.268 0-2.6.69-3.156 1.353l-.077.09.19 1.102.31-.175c.68-.38 1.445-.563 2.343-.563 1.5 0 2.17.73 2.17 2.365v1.04c-.31-.01-.68-.01-.916-.01-2.923 0-4.812 1.44-4.812 3.665 0 1.766 1.27 2.998 3.083 2.998 1.17 0 2.18-.6 2.746-1.18.216.74.857 1.19 1.75 1.19.69 0 1.377-.17 1.787-.44l.11-.072v-1h-.25c-1.26 0-1.46-.273-1.46-1.147m-24.05-.36V8.81c0-1.734-.37-4.04-3.54-4.04-1.035 0-2.096.557-2.84 1.143V0l-.36.186c-1.04.53-1.81.84-2.97 1.18l-.18.052v.923l.2.05c1.21.25 1.21.34 1.21 1.44v9.77c0 1.44-.17 1.47-.5 1.53l-.926.15v1.09l.61-.02c.51-.02 1.17-.05 1.84-.05.68 0 1.4.03 1.934.05l.565.02v-1.1l-.916-.14c-.317-.05-.51-.09-.51-1.52V7.33c.39-.243 1.306-.75 2.26-.75 1.492 0 2.02.65 2.02 2.476V13.6c0 1.438-.17 1.468-.5 1.526l-.926.144v1.094l.61-.024c.51-.022 1.17-.05 1.85-.05.68 0 1.4.03 1.93.052l.57.023v-1.093l-.92-.144c-.32-.058-.51-.093-.51-1.526m36.07-4.704c.227-1.278 1.02-2.647 2.61-2.647 1.39 0 2.02 1.25 2.02 2.41 0 .19-.03.24-.25.24h-4.38zm2.696-4.122c-2.914 0-5.03 2.566-5.03 6.1 0 3.6 1.92 5.748 5.14 5.748 1.72 0 3.11-.77 3.54-1.496l.05-.074-.118-.997-.32.163c-.77.395-1.69.595-2.74.595-2.465 0-3.34-2.138-3.34-4.138 0-.126 0-.26.003-.394h6.97l.03-.213c.05-.306.05-.54.05-.835 0-2.148-1.323-4.46-4.23-4.46zm-25.9 4.94a50.56 50.56 0 0 1-2.41-.06l-.454-.017v1.11l1.03.19c.35.07.684.13.684 1.5v2.36c-.68.35-1.732.4-2.32.4-2.74 0-4.51-2.36-4.51-6 0-3.59 1.82-6 4.53-6 1.746 0 2.78.94 2.91 2.65l.016.23h1.342l-.02-.27c-.088-1.21-.108-2.2-.13-3.16v-.17l-.16-.06c-.8-.29-2.08-.68-3.92-.68-4.03 0-6.952 3.2-6.952 7.6 0 4.43 2.61 7.3 6.65 7.3 1.91 0 3.83-.46 4.58-.78l.15-.07v-3.4c0-1.31.22-1.42.6-1.507l.87-.176v-1.1l-.59.025c-.49.02-1.1.05-1.88.05M15 8.895c.225-1.276 1.017-2.645 2.61-2.645 1.387 0 2.02 1.25 2.02 2.41 0 .19-.03.24-.248.24h-4.39zm2.695-4.12c-2.914 0-5.03 2.565-5.03 6.1 0 3.598 1.92 5.747 5.14 5.747 1.723 0 3.113-.77 3.547-1.496l.044-.074-.115-.997-.32.162c-.77.396-1.69.596-2.74.596-2.46 0-3.34-2.138-3.34-4.138 0-.125 0-.258.01-.393h6.97l.03-.213c.05-.31.05-.54.05-.84 0-2.15-1.32-4.46-4.23-4.46zm9.73 4.67C26.105 8.93 25.3 8.57 25.3 7.64c0-1.264 1.184-1.453 1.89-1.453 1.27 0 1.855.573 1.957 1.917l.018.23h1.3l-.02-.266c-.063-.94-.084-1.516-.042-2.454l.01-.176-.164-.07c-.7-.287-1.85-.594-2.97-.594-2.3 0-3.91 1.306-3.91 3.175 0 2.36 1.8 3.02 3.25 3.55 1.34.49 2.17.84 2.17 1.87 0 1.07-.81 1.76-2.07 1.76-1.67 0-2.06-.72-2.24-2.22l-.03-.22h-1.3l.01.26c.06 1.04.11 1.85.06 2.88l-.01.19.17.06c1.08.35 2.13.52 3.33.52 2.24 0 3.99-1.54 3.99-3.51 0-2.37-1.84-3.09-3.32-3.67M8.022 5.97c0 1.65-1.09 2.676-2.842 2.676a14.4 14.4 0 0 1-1.3-.046V3.5c.46-.027 1.01-.027 1.51-.027 1.71 0 2.65.887 2.65 2.498m2.52 8.21c-1.07-1.19-2.22-2.81-3.1-4.37 1.66-.55 2.928-2.23 2.928-3.94 0-2.43-1.72-3.88-4.597-3.88-.686 0-1.3.02-1.866.04-.49.02-.94.03-1.38.03-.843 0-1.72 0-2.26-.02L0 2.01v1.11l1.024.193c.352.07.685.135.685 1.506v8.73c0 1.37-.34 1.43-.69 1.5l-1.02.2v1.11l.51-.02c.59-.03 1.47-.06 2.35-.06.98 0 2.26.04 2.76.06l.26.01v-1.12l-1.34-.19c-.35-.05-.67-.1-.67-1.5v-3.43c.38.02.76.02 1.26.02 1.34 2.43 2.58 4.2 3.24 4.98.73.9 1.83 1.4 3.09 1.4.41 0 .83-.08 1.1-.2l.14-.07v-.99h-.25c-.6 0-1.31-.4-1.94-1.09" fill="#0CB" fill-rule="evenodd"/></svg>